<svg xmlns="http://www.w3.org/2000/svg" viewBox="0 0 101.52 23.98">
    <defs>
        <style>.msg-arrow{fill:#fff;}</style>
    </defs>
    <title>Asset 17</title>
    <g id="Layer_2" data-name="Layer 2">
        <path id="Start_Arrow" data-name="Start Arrow" class="msg-arrow" d="M100.82,7.34A286.45,286.45,0,0,1,71.37,0c-1-.32-3.17,1.45-2.21,2.49a64.54,64.54,0,0,0,8.69,7.85,575.18,575.18,0,0,1-75.76.95C.83,11.26-1,14,.69,14.09a574.85,574.85,0,0,0,79.18-1.24A31,31,0,0,0,76.6,23.28c-.15,1.11,1.33.62,1.76.37q11.33-6.52,22.11-13.91C101.19,9.25,102.22,7.61,100.82,7.34ZM83.09,10a62.21,62.21,0,0,1-7-5.39q10.3,2.87,20.81,5-8.46,5.67-17.26,10.82A27.66,27.66,0,0,1,82.86,12C83.51,11.36,83.88,10.55,83.09,10Z"/>
    </g>
</svg>
