<svg xmlns="http://www.w3.org/2000/svg" viewBox="0 0 20.5 20.5"><defs><style>.cls-1{fill:none;stroke:#fff;stroke-miterlimit:10;}.cls-2{fill:#fff;}</style></defs><title>sad face</title><g id="Layer_2" data-name="Layer 2"><g id="Layer_1-2" data-name="Layer 1"><g id="sad_face" data-name="sad face"><circle class="cls-1" cx="10.25" cy="10.25" r="9.75"/><path class="cls-2" d="M13.7,9.65A1.71,1.71,0,0,1,12,7.94V7.68a.45.45,0,1,1,.89,0v.26a.83.83,0,0,0,1.66,0V7.68a.45.45,0,1,1,.9,0v.26A1.72,1.72,0,0,1,13.7,9.65Z"/><path class="cls-2" d="M6.23,9.65A1.72,1.72,0,0,1,4.49,7.94V7.68a.45.45,0,1,1,.89,0v.26a.84.84,0,0,0,1.67,0V7.68a.45.45,0,1,1,.89,0v.26A1.72,1.72,0,0,1,6.23,9.65Z"/><path class="cls-2" d="M13.79,14.45a.44.44,0,0,1-.41-.28A3.59,3.59,0,0,0,10,12.26a3.57,3.57,0,0,0-3.42,1.91.45.45,0,0,1-.59.24.44.44,0,0,1-.24-.58A4.43,4.43,0,0,1,10,11.37a4.43,4.43,0,0,1,4.25,2.46.43.43,0,0,1-.24.58A.33.33,0,0,1,13.79,14.45Z"/></g></g></g></svg>